<svg xmlns="http://www.w3.org/2000/svg" viewBox="0 0 640 480" role="img" aria-label="Car prefab">
  <defs>
    <linearGradient id="bg" x1="0" y1="0" x2="1" y2="1">
      <stop offset="0" stop-color="#242a32"/>
      <stop offset="1" stop-color="#101318"/>
    </linearGradient>
    <linearGradient id="paint" x1="0" y1="0" x2="1" y2="1">
      <stop offset="0" stop-color="#e9eef8"/>
      <stop offset="0.5" stop-color="#7f96b9"/>
      <stop offset="1" stop-color="#33435d"/>
    </linearGradient>
  </defs>
  <rect width="640" height="480" fill="url(#bg)"/>
  <path d="M72 348h496" stroke="#353d49" stroke-width="18" stroke-linecap="round"/>
  <path d="M150 286l54-82c14-21 36-34 61-34h132c30 0 57 17 70 44l34 72h38c24 0 43 19 43 43v35H58v-28c0-28 22-50 50-50h42z" fill="url(#paint)" stroke="#d7e1f3" stroke-width="8" stroke-linejoin="round"/>
  <path d="M224 202h77v76H174l43-64c2-4 4-8 7-12zm101 0h70c17 0 32 9 40 25l25 51H325v-76z" fill="#111822" stroke="#d7e1f3" stroke-width="7"/>
  <circle cx="174" cy="366" r="54" fill="#0a0d11" stroke="#d7e1f3" stroke-width="10"/>
  <circle cx="174" cy="366" r="22" fill="#8fa5c7"/>
  <circle cx="470" cy="366" r="54" fill="#0a0d11" stroke="#d7e1f3" stroke-width="10"/>
  <circle cx="470" cy="366" r="22" fill="#8fa5c7"/>
  <path d="M89 301h76m332 0h55" stroke="#f2d26d" stroke-width="14" stroke-linecap="round"/>
  <path d="M232 143h176" stroke="#465365" stroke-width="10" stroke-linecap="round"/>
</svg>
